<svg width="116" height="24" viewBox="0 0 116 24" fill="none" xmlns="http://www.w3.org/2000/svg">
<g clip-path="url(#clip0_1646_74)">
<path d="M49.0526 11.4256C48.7788 9.89943 46.6831 9.73879 45.8653 9.73879C44.3647 9.73879 43.0321 10.1477 43.0321 11.1262C43.0321 11.9988 44.6094 12.1631 46.3545 12.2726C49.3776 12.4917 52.8935 12.8969 52.6489 16.5772C52.2838 19.2205 48.9979 20.4472 45.8909 20.4472C42.5137 20.4472 39.5162 19.33 39.2971 15.9236L42.6743 15.9784C42.7583 17.2855 44.31 17.614 45.9602 17.614C47.7857 17.614 48.9577 17.0664 49.0088 16.3033C49.0636 15.6242 48.2202 15.1606 45.9858 15.0802C43.065 14.9159 39.5271 14.507 39.5271 11.1554C39.5271 7.91328 43.1526 6.93115 45.8215 6.93115C48.7423 6.93115 52.0282 7.80375 52.3094 11.3124L49.0526 11.4256Z" fill="#121212"/>
<path d="M62.0502 16.9863C59.7099 18.213 57.585 16.8768 57.6106 14.7227V9.84855H62.2437V7.2052H57.6106V3.47021H54.1531V14.7227C54.1531 18.0524 56.1429 20.3927 59.8194 20.4183C60.9264 20.3849 62.0093 20.0869 62.9776 19.5493L62.0502 16.9863Z" fill="#121212"/>
<path d="M76.4206 17.1211C75.0296 19.7097 72.6309 20.407 70.2614 20.407C66.2452 20.407 63.3938 17.6834 63.3938 13.7038C63.3938 9.72416 66.2818 7.00049 70.3307 7.00049C74.7996 7.00049 77.4977 10.1878 77.118 14.9853H66.99C67.3186 16.8911 69.0638 17.4351 70.5608 17.4351C71.7583 17.4351 72.985 17.1649 73.5582 16.128L76.4206 17.1211ZM73.7481 12.3273C73.383 10.6917 71.813 9.9286 70.3709 9.9286C68.79 9.9286 67.3442 10.772 66.99 12.3273H73.7481Z" fill="#121212"/>
<path d="M78.772 3.47021V20.1736H82.2843V3.47021H78.772Z" fill="#121212"/>
<path d="M84.3472 3.47021V20.1736H87.874V3.47021H84.3472Z" fill="#121212"/>
<path d="M90.2945 9.52338C91.6856 7.36928 93.92 6.77051 96.1362 6.77051C99.4878 6.77051 102.949 8.78587 102.949 12.4661V17.3986L103.084 20.1771H99.9223L99.5973 18.3516C98.6955 19.7681 96.7897 20.4509 95.0189 20.4509C92.3208 20.4217 89.5972 19.1949 89.5972 16.1463C89.5972 13.1744 92.3464 12.1667 95.2088 12.1667H99.3235C98.4509 9.30432 94.0368 9.41385 92.5107 11.4584L90.2945 9.52338ZM99.4221 14.7297H95.1175C94.1646 14.7297 93.1022 15.219 93.1277 16.1463C93.1569 17.154 94.6283 17.479 95.5009 17.4534C97.0818 17.4205 99.1227 16.8765 99.4221 14.7261V14.7297Z" fill="#121212"/>
<path d="M108.002 7.20504L108.217 8.73116C108.575 8.15505 109.078 7.68316 109.676 7.36276C110.274 7.04237 110.946 6.88473 111.624 6.90565C112.905 6.90565 114.596 7.34013 115.64 8.62163L114.077 10.9838C113.465 10.4282 112.67 10.1175 111.843 10.1112C111.415 10.1016 110.989 10.1764 110.591 10.3314C110.192 10.4865 109.827 10.7187 109.518 11.0148C109.209 11.3108 108.962 11.665 108.79 12.0569C108.618 12.4488 108.525 12.8707 108.517 13.2986V20.1917H105.004V7.20504H108.002Z" fill="#121212"/>
<path d="M27.7299 12.0001C27.7299 5.37261 22.3573 0 15.7298 0H0C0 6.62746 5.37261 12.0001 12.0001 12.0001H27.7299Z" fill="#ED785D"/>
<path d="M0 12C0 18.6274 5.37262 24 12.0001 24H27.7299C27.7299 17.3727 22.3573 12 15.7298 12H0Z" fill="#D1F96C"/>
</g>
<defs>
<clipPath id="clip0_1646_74">
<rect width="116" height="24" fill="white"/>
</clipPath>
</defs>
</svg>
